HIERARCHY
ROOT Pelvis
{
	OFFSET 0.000000 0.000000 0.000000
	CHANNELS 6 Xposition Yposition Zposition Xrotation Yrotation Zrotation
	JOINT LeftUpLeg_virtual
	{
		OFFSET 0.000000 0.000000 0.000000
		CHANNELS 3 Xrotation Yrotation Zrotation
		JOINT LeftUpLeg
		{
			OFFSET 8.479700 -4.795502 -0.379100
			CHANNELS 3 Xrotation Yrotation Zrotation
			JOINT LeftLeg
			{
				OFFSET 0.024144 -32.555107 0.112900
				CHANNELS 3 Xrotation Yrotation Zrotation
				JOINT LeftFoot
				{
					OFFSET -0.024144 -32.638630 -3.012600
					CHANNELS 3 Xrotation Yrotation Zrotation
					JOINT LeftToeBase
					{
						OFFSET 0.970200 -13.225400 11.864200
						CHANNELS 3 Xrotation Yrotation Zrotation
						End Site
						{
							OFFSET 0 0 0
						}
					}
				}
			}
		}
	}
	JOINT RightUpLeg_virtual
	{
		OFFSET 0.000000 0.000000 0.000000
		CHANNELS 3 Xrotation Yrotation Zrotation
		JOINT RightUpLeg
		{
			OFFSET -8.479700 -4.795502 -0.379100
			CHANNELS 3 Xrotation Yrotation Zrotation
			JOINT RightLeg
			{
				OFFSET -0.023144 -32.555092 0.112900
				CHANNELS 3 Xrotation Yrotation Zrotation
				JOINT RightFoot
				{
					OFFSET 0.023144 -32.638641 -3.012700
					CHANNELS 3 Xrotation Yrotation Zrotation
					JOINT RightToeBase
					{
						OFFSET -0.970200 -13.225400 11.864200
						CHANNELS 3 Xrotation Yrotation Zrotation
						End Site
						{
							OFFSET 0 0 0
						}
					}
				}
			}
		}
	}
	JOINT Hips_virtual
	{
		OFFSET 0.000000 0.000000 0.000000
		CHANNELS 3 Xrotation Yrotation Zrotation
		JOINT Hips
		{
			OFFSET -0.000000 -0.000000 -0.000000
			CHANNELS 3 Xrotation Yrotation Zrotation
			JOINT Spine
			{
				OFFSET 0.000000 7.722000 1.166200
				CHANNELS 3 Xrotation Yrotation Zrotation
				JOINT Spine1
				{
					OFFSET 0.000000 12.024101 0.248800
					CHANNELS 3 Xrotation Yrotation Zrotation
					JOINT Spine2
					{
						OFFSET 0.000000 11.502998 -0.491200
						CHANNELS 3 Xrotation Yrotation Zrotation
						JOINT Neck_virtual
						{
							OFFSET 0.000000 0.000000 0.000000
							CHANNELS 3 Xrotation Yrotation Zrotation
							JOINT Neck
							{
								OFFSET 0.000000 18.430702 -3.123100
								CHANNELS 3 Xrotation Yrotation Zrotation
								JOINT Head
								{
									OFFSET 0.000000 9.051102 1.034000
									CHANNELS 3 Xrotation Yrotation Zrotation
									End Site
									{
										OFFSET 0 0 0
									}
								}
							}
						}
						JOINT LeftShoulder_virtual
						{
							OFFSET 0.000000 0.000000 0.000000
							CHANNELS 3 Xrotation Yrotation Zrotation
							JOINT LeftShoulder
							{
								OFFSET 6.197800 13.665199 -4.064700
								CHANNELS 3 Xrotation Yrotation Zrotation
								JOINT LeftArm
								{
									OFFSET 7.778100 -0.187103 -1.709300
									CHANNELS 3 Xrotation Yrotation Zrotation
									JOINT LeftForeArm
									{
										OFFSET 22.049376 0.000000 0.000000
										CHANNELS 3 Xrotation Yrotation Zrotation
										JOINT LeftHand
										{
											OFFSET 23.009392 0.000000 0.000000
											CHANNELS 3 Xrotation Yrotation Zrotation
											End Site
											{
												OFFSET 0 0 0
											}
										}
									}
								}
							}
						}
						JOINT RightShoulder_virtual
						{
							OFFSET 0.000000 0.000000 0.000000
							CHANNELS 3 Xrotation Yrotation Zrotation
							JOINT RightShoulder
							{
								OFFSET -6.197800 13.665199 -4.064700
								CHANNELS 3 Xrotation Yrotation Zrotation
								JOINT RightArm
								{
									OFFSET -7.778100 -0.187103 -1.709300
									CHANNELS 3 Xrotation Yrotation Zrotation
									JOINT RightForeArm
									{
										OFFSET -22.049376 0.000000 0.000000
										CHANNELS 3 Xrotation Yrotation Zrotation
										JOINT RightHand
										{
											OFFSET -23.009392 0.000000 0.000000
											CHANNELS 3 Xrotation Yrotation Zrotation
											End Site
											{
												OFFSET 0 0 0
											}
										}
									}
								}
							}
						}
					}
				}
			}
		}
	}
}
MOTION
Frames: 13
Frame Time: 0.03333333
-3.673704 75.398125 -4.155352 0.000000 0.000000 0.000000 -3.154519 -6.280555 5.173421 -63.138760 5.442302 6.829854 55.878952 -1.038344 -5.087142 -1.536621 0.052698 -0.596406 0.000000 0.000000 0.000000 -3.154519 -6.280555 5.173421 -23.056357 -6.872989 -6.764290 53.518562 7.296292 3.455873 -27.039580 3.137678 -8.702733 0.000000 0.000000 0.000000 -3.154519 -6.280555 5.173421 0.000000 0.000000 0.000000 13.731896 0.115982 -4.199701 2.722913 0.133860 -0.943517 0.000000 0.000000 0.000000 2.720025 0.135223 -0.952573 2.743904 0.369061 0.041968 0.000000 0.000000 0.000000 2.720025 0.135223 -0.952573 0.619251 -1.200855 -10.994814 17.248856 -24.148520 -54.371574 0.000002 -28.855370 -0.000002 0.000000 0.000000 0.000000 2.720025 0.135223 -0.952573 0.265365 6.336859 17.304040 14.561917 17.232547 47.386073 0.000006 42.148978 -0.000025 0.000000 0.000000 0.000000 
-3.728188 75.220200 -4.273848 0.000000 0.000000 0.000000 -3.040821 -6.242300 5.108299 -62.608642 5.010279 6.340661 51.295486 -1.160407 -4.809290 1.513792 0.044010 0.694149 0.000000 0.000000 0.000000 -3.040821 -6.242300 5.108299 -23.562097 -6.940567 -6.660938 54.110145 7.313488 3.445054 -27.222938 3.150072 -8.824065 0.000000 0.000000 0.000000 -3.040821 -6.242300 5.108299 0.000000 0.000000 0.000000 13.850951 0.216785 -3.980957 2.787337 0.158803 -0.935779 0.000000 0.000000 0.000000 2.784213 0.161847 -0.946242 2.763235 0.364234 0.009163 0.000000 0.000000 0.000000 2.784213 0.161847 -0.946242 0.629835 -1.288736 -11.002612 17.403969 -24.407259 -54.849199 -0.000005 -28.505427 0.000001 0.000000 0.000000 0.000000 2.784213 0.161847 -0.946242 0.222707 6.699103 17.382114 14.920429 17.286546 46.635972 -0.000020 43.116037 0.000035 0.000000 0.000000 0.000000 
-3.780572 75.055435 -4.404005 0.000000 0.000000 0.000000 -2.864714 -6.304791 4.981485 -61.942904 4.552857 5.975272 46.742338 -1.877995 -4.435189 5.074853 0.089227 2.122457 0.000000 0.000000 0.000000 -2.864714 -6.304791 4.981485 -24.111514 -7.042825 -6.494315 54.618803 7.437162 3.436128 -27.322258 3.167803 -9.000403 0.000000 0.000000 0.000000 -2.864714 -6.304791 4.981485 0.000000 0.000000 -0.000001 13.966402 0.336561 -3.731028 2.847387 0.187925 -0.917955 0.000000 0.000000 0.000000 2.844044 0.192474 -0.929923 2.777809 0.367202 -0.028368 0.000000 0.000000 0.000000 2.844044 0.192474 -0.929923 0.640729 -1.333960 -11.005097 17.374234 -24.472996 -55.481630 -0.000007 -28.210913 0.000025 0.000000 0.000000 0.000000 2.844044 0.192474 -0.929923 0.180823 7.065461 17.444798 15.301582 17.417510 45.815027 -0.000004 44.069514 0.000010 0.000000 0.000000 0.000000 
-3.839557 74.931961 -4.560059 0.000000 0.000000 0.000000 -2.603140 -6.407899 4.855141 -61.404978 4.059231 5.871932 43.289947 -1.876820 -4.042576 7.524136 0.096657 2.235790 0.000000 0.000000 0.000000 -2.603140 -6.407899 4.855141 -24.708930 -7.157559 -6.304677 54.977668 7.602164 3.429948 -27.301596 3.179639 -9.202415 0.000000 0.000000 0.000000 -2.603140 -6.407899 4.855141 0.000000 0.000000 0.000000 14.084456 0.455353 -3.521004 2.901650 0.218671 -0.897720 0.000000 0.000000 0.000000 2.898106 0.224245 -0.911136 2.785685 0.373451 -0.062493 0.000000 0.000000 0.000000 2.898106 0.224245 -0.911136 0.651117 -1.376264 -11.000298 17.231056 -24.456452 -56.127612 -0.000004 -27.965516 -0.000008 0.000000 0.000000 0.000000 2.898106 0.224245 -0.911136 0.141481 7.412044 17.493919 15.609462 17.553246 45.040289 0.000016 44.952665 -0.000024 0.000000 0.000000 0.000000 
-3.911883 74.885338 -4.758856 0.000000 0.000000 0.000000 -2.228542 -6.478588 4.791045 -61.014292 3.663693 5.856368 40.774604 -1.667806 -3.717263 8.732504 0.052244 1.780712 0.000000 0.000000 0.000000 -2.228542 -6.478588 4.791045 -25.353485 -7.262170 -6.132105 55.094717 7.731860 3.425854 -27.112745 3.172447 -9.391292 0.000000 0.000000 0.000000 -2.228542 -6.478588 4.791045 0.000000 0.000000 0.000000 14.205922 0.540466 -3.409684 2.948590 0.244173 -0.882541 0.000000 0.000000 0.000000 2.944863 0.250127 -0.897077 2.784119 0.379459 -0.086376 0.000000 0.000000 0.000000 2.944863 0.250127 -0.897077 0.660196 -1.456142 -10.992148 17.052646 -24.459759 -56.653298 0.000005 -27.764832 -0.000001 0.000000 0.000000 0.000000 2.944863 0.250127 -0.897077 0.106667 7.709675 17.533401 15.764220 17.647320 44.412957 0.000013 45.711813 0.000004 0.000000 0.000000 0.000000 
-3.999175 74.946587 -5.006567 0.000000 0.000000 0.000000 -1.722173 -6.449384 4.823472 -60.801231 3.461875 5.751995 39.329339 -1.240919 -3.527806 8.602528 0.031544 1.805135 0.000000 0.000000 0.000000 -1.722173 -6.449384 4.823472 -26.024168 -7.344695 -5.997588 54.879207 7.756986 3.422874 -26.718074 3.134337 -9.525566 0.000000 0.000000 0.000000 -1.722173 -6.449384 4.823472 0.000000 0.000000 0.000000 14.328963 0.557262 -3.419448 2.987330 0.255126 -0.876991 0.000000 0.000000 0.000000 2.983546 0.260810 -0.891991 2.771537 0.383445 -0.095826 0.000000 0.000000 0.000000 2.983546 0.260810 -0.891991 0.667343 -1.604668 -10.986819 16.906520 -24.561741 -56.964932 -0.000004 -27.603651 -0.000011 0.000000 0.000000 0.000000 2.983546 0.260810 -0.891991 0.077832 7.932548 17.568908 15.723896 17.679989 43.996783 -0.000005 46.306292 -0.000001 0.000000 0.000000 0.000000 
-4.098826 75.131920 -5.294405 0.000000 0.000000 0.000000 -1.082447 -6.278555 4.943795 -60.749198 3.425800 5.605207 38.919743 -1.261308 -3.505964 7.519587 -0.012772 1.552188 0.000000 0.000000 0.000000 -1.082447 -6.278555 4.943795 -26.677377 -7.408079 -5.894531 54.264685 7.638925 3.420733 -26.102722 3.059648 -9.578294 0.000000 0.000000 0.000000 -1.082447 -6.278555 4.943795 0.000000 0.000000 0.000000 14.448594 0.483142 -3.526790 3.017412 0.242815 -0.880788 0.000000 0.000000 0.000000 3.013750 0.247732 -0.895309 2.749062 0.385449 -0.089712 0.000000 0.000000 0.000000 3.013750 0.247732 -0.895309 0.672245 -1.833725 -10.988910 16.841669 -24.812073 -57.023081 -0.000015 -27.474786 0.000002 0.000000 0.000000 0.000000 3.013750 0.247732 -0.895309 0.055482 8.066087 17.607943 15.497257 17.648481 43.807700 -0.000001 46.719549 0.000002 0.000000 0.000000 0.000000 
-4.206603 75.443710 -5.612497 0.000000 0.000000 0.000000 -0.324560 -5.957291 5.115000 -60.842628 3.595190 5.273895 39.518921 -1.357632 -3.640958 5.749401 -0.019739 2.106221 0.000000 0.000000 0.000000 -0.324560 -5.957291 5.115000 -27.264503 -7.464049 -5.798207 53.212686 7.372183 3.419003 -25.260159 2.948192 -9.544774 0.000000 0.000000 0.000000 -0.324560 -5.957291 5.115000 0.000000 0.000000 0.000000 14.554365 0.307926 -3.680447 3.037786 0.201837 -0.888708 0.000000 0.000000 0.000000 3.034475 0.205774 -0.901654 2.721096 0.387020 -0.069719 0.000000 0.000000 0.000000 3.034475 0.205774 -0.901654 0.675003 -2.130595 -10.999659 16.888261 -25.229568 -56.839765 0.000004 -27.372261 -0.000003 0.000000 0.000000 0.000000 3.034475 0.205774 -0.901654 0.038870 8.111697 17.659316 15.141744 17.555594 43.816531 -0.000007 46.964852 0.000004 0.000000 0.000000 0.000000 
-4.318484 75.861877 -5.945446 0.000000 0.000000 0.000000 0.527541 -5.511419 5.281335 -60.966248 3.868851 4.939467 41.193868 -1.986031 -3.889552 2.812892 -0.068551 2.457213 0.000000 0.000000 0.000000 0.527541 -5.511419 5.281335 -27.751701 -7.530843 -5.671134 51.745431 6.984950 3.417733 -24.212688 2.806874 -9.443265 0.000000 0.000000 0.000000 0.527541 -5.511419 5.281335 0.000000 0.000000 0.000000 14.629871 0.038122 -3.814230 3.046267 0.131668 -0.892782 0.000000 0.000000 0.000000 3.043620 0.134691 -0.903074 2.694360 0.390607 -0.039642 0.000000 0.000000 0.000000 3.043620 0.134691 -0.903074 0.676135 -2.460479 -11.017391 17.060221 -25.802211 -56.463688 -0.000004 -27.297749 -0.000003 0.000000 0.000000 0.000000 3.043620 0.134691 -0.903074 0.026298 8.085972 17.731999 14.745641 17.402632 43.964456 -0.000004 47.081296 0.000019 0.000000 0.000000 0.000000 
-4.430354 76.351097 -6.283342 0.000000 0.000000 0.000000 1.449620 -4.993252 5.396495 -60.885741 4.224500 4.591418 43.082152 -2.872231 -4.188384 -0.191118 -0.128037 3.058115 0.000000 0.000000 0.000000 1.449620 -4.993252 5.396495 -28.139749 -7.621838 -5.484861 49.940895 6.531838 3.416959 -23.001232 2.646611 -9.305656 0.000000 0.000000 0.000000 1.449620 -4.993252 5.396495 0.000000 0.000000 0.000000 14.656334 -0.305492 -3.876029 3.040144 0.036729 -0.885749 0.000000 0.000000 0.000000 3.038406 0.039129 -0.892502 2.675846 0.398610 -0.004420 0.000000 0.000000 0.000000 3.038406 0.039129 -0.892502 0.676484 -2.777303 -11.039082 17.356704 -26.490464 -55.961376 -0.000010 -27.265051 -0.000005 0.000000 0.000000 0.000000 3.038406 0.039129 -0.892502 0.015757 8.013966 17.832975 14.401606 17.186230 44.185781 -0.000016 47.121308 0.000053 0.000000 0.000000 0.000000 
-4.537685 76.861938 -6.613062 0.000000 0.000000 0.000000 2.419756 -4.464592 5.433984 -60.505040 4.555921 4.378668 44.920460 -3.597331 -4.472449 -3.031644 -0.187114 3.055180 0.000000 0.000000 0.000000 2.419756 -4.464592 5.433984 -28.464233 -7.741210 -5.230378 47.943813 6.075647 3.417118 -21.701324 2.481482 -9.167511 0.000000 0.000000 0.000000 2.419756 -4.464592 5.433984 0.000000 0.000000 0.000000 14.619226 -0.691661 -3.837713 3.017769 -0.074675 -0.864027 0.000000 0.000000 0.000000 3.017130 -0.072500 -0.866693 2.670404 0.412421 0.030757 0.000000 0.000000 0.000000 3.017130 -0.072500 -0.866693 0.676914 -3.038801 -11.061889 17.762032 -27.234498 -55.400955 -0.000017 -27.299264 -0.000030 0.000000 0.000000 0.000000 3.017130 -0.072500 -0.866693 0.005693 7.919819 17.964444 14.182330 16.898931 44.430333 0.000017 47.134480 -0.000034 0.000000 0.000000 0.000000 
-4.635028 77.333084 -6.914202 0.000000 0.000000 0.000000 3.414517 -3.984910 5.381624 -59.923825 4.821543 4.293857 46.934762 -4.406111 -4.688685 -5.126925 -0.205502 2.658377 0.000000 0.000000 0.000000 3.414517 -3.984910 5.381624 -28.789825 -7.887056 -4.913023 45.971442 5.674109 3.419927 -20.432752 2.327883 -9.059133 0.000000 0.000000 0.000000 3.414517 -3.984910 5.381624 0.000000 0.000000 0.000000 14.514702 -1.077178 -3.690180 2.980273 -0.192152 -0.828907 0.000000 0.000000 0.000000 2.980816 -0.189829 -0.827343 2.679587 0.431874 0.061004 0.000000 0.000000 0.000000 2.980816 -0.189829 -0.827343 0.678063 -3.219089 -11.083928 18.245688 -27.964709 -54.842802 -0.000005 -27.429661 -0.000012 0.000000 0.000000 0.000000 2.980816 -0.189829 -0.827343 -0.004297 7.819493 18.120985 14.127513 16.532814 44.675735 0.000019 47.154564 -0.000025 0.000000 0.000000 0.000000 
-4.720438 77.725029 -7.188730 0.000000 0.000000 0.000000 4.401242 -3.586281 5.277755 -59.129999 5.021380 4.250685 48.274746 -5.453311 -4.800838 -5.918323 -0.182736 2.180444 0.000000 0.000000 0.000000 4.401242 -3.586281 5.277755 -29.185166 -8.037891 -4.578583 44.214523 5.355179 3.423963 -19.285758 2.195090 -8.993172 0.000000 0.000000 0.000000 4.401242 -3.586281 5.277755 0.000000 0.000000 0.000000 14.352066 -1.436953 -3.473397 2.932385 -0.305212 -0.785741 0.000000 0.000000 0.000000 2.934059 -0.302460 -0.780204 2.702223 0.455339 0.081927 0.000000 0.000000 0.000000 2.934059 -0.302460 -0.780204 0.680117 -3.313450 -11.104445 18.764300 -28.612870 -54.336504 -0.000019 -27.677755 -0.000008 0.000000 0.000000 0.000000 2.934059 -0.302460 -0.780204 -0.013272 7.718484 18.287915 14.244993 16.087189 44.926549 0.000005 47.192144 -0.000010 0.000000 0.000000 0.000000 
